#N canvas 29 32 1251 717 10;
#X obj 201 258 tgl 15 0 empty empty empty 17 7 0 10 -262144 -1 -1 0
1;
#X text 728 34 These have to be one per voice Reason why we want to
limit their number is that each [readsf~] uses lots of memory;
#X obj 670 184 readsf-wrapper \$0 1 0.01;
#X obj 670 214 readsf-wrapper \$0 2 0.01;
#X obj 672 243 readsf-wrapper \$0 3 0.01;
#X obj 672 273 readsf-wrapper \$0 4 0.01;
#X obj 674 304 readsf-wrapper \$0 5 0.01;
#X obj 674 334 readsf-wrapper \$0 6 0.01;
#X obj 676 363 readsf-wrapper \$0 7 0.01;
#X obj 669 159 readsf-wrapper \$0 0 0.01;
#X msg 125 107 \; pd dsp 1;
#X obj 675 389 readsf-wrapper \$0 8 0.01;
#X obj 676 414 readsf-wrapper \$0 9 0.01;
#X obj 676 444 readsf-wrapper \$0 10 0.01;
#X obj 678 473 readsf-wrapper \$0 11 0.01;
#X obj 678 503 readsf-wrapper \$0 12 0.01;
#X obj 680 534 readsf-wrapper \$0 13 0.01;
#X obj 680 564 readsf-wrapper \$0 14 0.01;
#X obj 682 593 readsf-wrapper \$0 15 0.01;
#X obj 929 159 readsf-wrapper \$0 16 0.01;
#X obj 930 184 readsf-wrapper \$0 17 0.01;
#X obj 930 214 readsf-wrapper \$0 18 0.01;
#X obj 932 243 readsf-wrapper \$0 19 0.01;
#X obj 932 273 readsf-wrapper \$0 20 0.01;
#X obj 934 304 readsf-wrapper \$0 21 0.01;
#X obj 934 334 readsf-wrapper \$0 22 0.01;
#X obj 936 363 readsf-wrapper \$0 23 0.01;
#X obj 935 389 readsf-wrapper \$0 24 0.01;
#X obj 936 414 readsf-wrapper \$0 25 0.01;
#X obj 936 444 readsf-wrapper \$0 26 0.01;
#X obj 938 473 readsf-wrapper \$0 27 0.01;
#X obj 938 503 readsf-wrapper \$0 28 0.01;
#X obj 940 534 readsf-wrapper \$0 29 0.01;
#X obj 940 564 readsf-wrapper \$0 30 0.01;
#X obj 942 593 readsf-wrapper \$0 31 0.01;
#X obj 364 147 t b b b;
#X obj 263 541 %;
#X obj 363 125 bng 15 250 50 0 empty empty empty 17 7 0 10 -262144
-1 -1;
#X floatatom 213 582 5 0 0 0 - - -;
#X msg 389 228 64;
#X text 312 172 This generates the dynamic loaders;
#X text 457 219 n voices;
#X obj 319 267 generate-dynamic-loaders \$0;
#X obj 214 622 send \$0-trigger-playback;
#X text 728 58 Currently these are statically allocated \, with each
[dynamic-load-file] object permanently associated with one of these.
Multiple [dynamic-load-file] objects can share the same [readsf-wrapper].
but they cannot play at the same time. Dynamic pairing of [dynamic-load-file]
to [readsf-wrapper] via a dynamic voice allocator would be much better.
;
#X text 16 160 You need nOfFiles files called sineX.wav \,;
#X text 16 170 with X being a number between 0 and nOfFiles-1;
#X text 375 202 nOfFiles;
#N canvas 202 50 1078 692 \$0-dynamic-loaders 0;
#X obj 0 40 receive 1003-trigger-playback;
#X obj 0 60 i;
#X obj 0 80 select 0 1 2 3 4 5 6 7 8 9 10 11 12 13 14 15 16 17 18 19
20 21 22 23 24 25 26 27 28 29 30 31 32 33 34 35 36 37 38 39 40 41 42
43 44 45 46 47 48 49 50 51 52 53 54 55 56 57 58 59 60 61 62 63;
#X obj 0 130 dynamic-load-file sine0.wav 1003 0;
#X obj 10 151 dynamic-load-file sine1.wav 1003 1;
#X obj 20 172 dynamic-load-file sine2.wav 1003 2;
#X obj 30 193 dynamic-load-file sine3.wav 1003 3;
#X obj 40 214 dynamic-load-file sine4.wav 1003 4;
#X obj 50 235 dynamic-load-file sine5.wav 1003 5;
#X obj 60 256 dynamic-load-file sine6.wav 1003 6;
#X obj 70 277 dynamic-load-file sine7.wav 1003 7;
#X obj 80 298 dynamic-load-file sine8.wav 1003 8;
#X obj 90 319 dynamic-load-file sine9.wav 1003 9;
#X obj 100 340 dynamic-load-file sine10.wav 1003 10;
#X obj 110 361 dynamic-load-file sine11.wav 1003 11;
#X obj 120 382 dynamic-load-file sine12.wav 1003 12;
#X obj 130 403 dynamic-load-file sine13.wav 1003 13;
#X obj 140 424 dynamic-load-file sine14.wav 1003 14;
#X obj 150 445 dynamic-load-file sine15.wav 1003 15;
#X obj 160 466 dynamic-load-file sine16.wav 1003 0;
#X obj 170 487 dynamic-load-file sine17.wav 1003 1;
#X obj 180 508 dynamic-load-file sine18.wav 1003 2;
#X obj 190 529 dynamic-load-file sine19.wav 1003 3;
#X obj 200 550 dynamic-load-file sine20.wav 1003 4;
#X obj 210 571 dynamic-load-file sine21.wav 1003 5;
#X obj 220 592 dynamic-load-file sine22.wav 1003 6;
#X obj 230 613 dynamic-load-file sine23.wav 1003 7;
#X obj 240 634 dynamic-load-file sine24.wav 1003 8;
#X obj 250 655 dynamic-load-file sine25.wav 1003 9;
#X obj 260 676 dynamic-load-file sine26.wav 1003 10;
#X obj 270 697 dynamic-load-file sine27.wav 1003 11;
#X obj 280 718 dynamic-load-file sine28.wav 1003 12;
#X obj 290 739 dynamic-load-file sine29.wav 1003 13;
#X obj 300 760 dynamic-load-file sine30.wav 1003 14;
#X obj 310 781 dynamic-load-file sine31.wav 1003 15;
#X obj 320 802 dynamic-load-file sine32.wav 1003 0;
#X obj 330 823 dynamic-load-file sine33.wav 1003 1;
#X obj 340 844 dynamic-load-file sine34.wav 1003 2;
#X obj 350 865 dynamic-load-file sine35.wav 1003 3;
#X obj 360 886 dynamic-load-file sine36.wav 1003 4;
#X obj 370 907 dynamic-load-file sine37.wav 1003 5;
#X obj 380 928 dynamic-load-file sine38.wav 1003 6;
#X obj 390 949 dynamic-load-file sine39.wav 1003 7;
#X obj 400 970 dynamic-load-file sine40.wav 1003 8;
#X obj 410 991 dynamic-load-file sine41.wav 1003 9;
#X obj 420 1012 dynamic-load-file sine42.wav 1003 10;
#X obj 430 1033 dynamic-load-file sine43.wav 1003 11;
#X obj 440 1054 dynamic-load-file sine44.wav 1003 12;
#X obj 450 1075 dynamic-load-file sine45.wav 1003 13;
#X obj 460 1096 dynamic-load-file sine46.wav 1003 14;
#X obj 470 1117 dynamic-load-file sine47.wav 1003 15;
#X obj 480 1138 dynamic-load-file sine48.wav 1003 0;
#X obj 490 1159 dynamic-load-file sine49.wav 1003 1;
#X obj 500 1180 dynamic-load-file sine50.wav 1003 2;
#X obj 510 1201 dynamic-load-file sine51.wav 1003 3;
#X obj 520 1222 dynamic-load-file sine52.wav 1003 4;
#X obj 530 1243 dynamic-load-file sine53.wav 1003 5;
#X obj 540 1264 dynamic-load-file sine54.wav 1003 6;
#X obj 550 1285 dynamic-load-file sine55.wav 1003 7;
#X obj 560 1306 dynamic-load-file sine56.wav 1003 8;
#X obj 570 1327 dynamic-load-file sine57.wav 1003 9;
#X obj 580 1348 dynamic-load-file sine58.wav 1003 10;
#X obj 590 1369 dynamic-load-file sine59.wav 1003 11;
#X obj 600 1390 dynamic-load-file sine60.wav 1003 12;
#X obj 610 1411 dynamic-load-file sine61.wav 1003 13;
#X obj 620 1432 dynamic-load-file sine62.wav 1003 14;
#X obj 630 1453 dynamic-load-file sine63.wav 1003 15;
#X connect 0 0 1 0;
#X connect 1 0 2 0;
#X connect 2 0 3 0;
#X connect 2 1 4 0;
#X connect 2 2 5 0;
#X connect 2 3 6 0;
#X connect 2 4 7 0;
#X connect 2 5 8 0;
#X connect 2 6 9 0;
#X connect 2 7 10 0;
#X connect 2 8 11 0;
#X connect 2 9 12 0;
#X connect 2 10 13 0;
#X connect 2 11 14 0;
#X connect 2 12 15 0;
#X connect 2 13 16 0;
#X connect 2 14 17 0;
#X connect 2 15 18 0;
#X connect 2 16 19 0;
#X connect 2 17 20 0;
#X connect 2 18 21 0;
#X connect 2 19 22 0;
#X connect 2 20 23 0;
#X connect 2 21 24 0;
#X connect 2 22 25 0;
#X connect 2 23 26 0;
#X connect 2 24 27 0;
#X connect 2 25 28 0;
#X connect 2 26 29 0;
#X connect 2 27 30 0;
#X connect 2 28 31 0;
#X connect 2 29 32 0;
#X connect 2 30 33 0;
#X connect 2 31 34 0;
#X connect 2 32 35 0;
#X connect 2 33 36 0;
#X connect 2 34 37 0;
#X connect 2 35 38 0;
#X connect 2 36 39 0;
#X connect 2 37 40 0;
#X connect 2 38 41 0;
#X connect 2 39 42 0;
#X connect 2 40 43 0;
#X connect 2 41 44 0;
#X connect 2 42 45 0;
#X connect 2 43 46 0;
#X connect 2 44 47 0;
#X connect 2 45 48 0;
#X connect 2 46 49 0;
#X connect 2 47 50 0;
#X connect 2 48 51 0;
#X connect 2 49 52 0;
#X connect 2 50 53 0;
#X connect 2 51 54 0;
#X connect 2 52 55 0;
#X connect 2 53 56 0;
#X connect 2 54 57 0;
#X connect 2 55 58 0;
#X connect 2 56 59 0;
#X connect 2 57 60 0;
#X connect 2 58 61 0;
#X connect 2 59 62 0;
#X connect 2 60 63 0;
#X connect 2 61 64 0;
#X connect 2 62 65 0;
#X connect 2 63 66 0;
#X restore 216 650 pd \$0-dynamic-loaders;
#X obj 254 504 + 1;
#X obj 363 100 loadbang;
#X text 312 182 every time the program is started;
#X text 195 478 Counter over files;
#X obj 123 24 loadbang;
#X text 248 581 Number of file to trigger;
#X obj 202 289 metro 6000;
#X obj 236 372 + 1;
#X obj 250 404 ==;
#X obj 299 378 - 1;
#X obj 201 370 f 0;
#X obj 265 424 select 0 1;
#X obj 214 321 delay 50;
#X msg 296 450 0;
#X obj 204 451 bang;
#X text 277 356 Count over voices;
#X text 119 297 Every 6000ms;
#X text 119 307 start playing nVoices;
#X text 119 317 spaced by 50ms;
#X obj 220 504 f -1;
#X obj 222 92 delay 3000;
#X text 207 29 This delay is because the Pd GUI freezes while running
this patch. Hopefully the delay gives you enough time to delete a patchcord.
Failling that \, edit the _main.pd in text editor and replace loadbang
with noloadbang;
#X obj 460 386 pack f f;
#X obj 460 456 print;
#X msg 461 422 playing \$1 files with \$2 voices;
#X obj 461 357 pipe 0;
#X msg 468 236 16;
#X connect 0 0 55 0;
#X connect 35 0 42 0;
#X connect 35 1 39 0;
#X connect 35 2 75 0;
#X connect 36 0 38 0;
#X connect 36 0 68 1;
#X connect 37 0 35 0;
#X connect 38 0 43 0;
#X connect 39 0 42 1;
#X connect 39 0 36 1;
#X connect 39 0 74 0;
#X connect 49 0 36 0;
#X connect 50 0 37 0;
#X connect 53 0 10 0;
#X connect 53 0 69 0;
#X connect 55 0 59 0;
#X connect 56 0 59 1;
#X connect 57 0 60 0;
#X connect 58 0 57 1;
#X connect 59 0 56 0;
#X connect 59 0 57 0;
#X connect 59 0 63 0;
#X connect 60 0 61 0;
#X connect 60 1 62 0;
#X connect 61 0 59 0;
#X connect 62 0 59 1;
#X connect 63 0 68 0;
#X connect 68 0 49 0;
#X connect 69 0 0 0;
#X connect 71 0 73 0;
#X connect 73 0 72 0;
#X connect 74 0 71 0;
#X connect 75 0 42 2;
#X connect 75 0 58 0;
#X connect 75 0 71 1;
