#N canvas 409 88 780 356 10;
#X obj 152 95 until;
#X obj 153 14 inlet;
#X obj 153 41 t b b;
#X obj 269 25 inlet;
#X obj 152 70 \$1;
#X obj 259 310 outlet;
#X obj 258 280 bang;
#X obj 241 257 spigot;
#X obj 183 209 t b f f;
#X obj 276 227 expr if($f1==$f2-1 \, 1 \, 0);
#X obj 160 252 outlet;
#X obj 158 137 f;
#X obj 228 145 + 1;
#X msg 210 88 -1;
#X text 342 21 When receiving a bang on the first inlet;
#X text 342 31 it counts from 0 to the second inlet (or \$1) -1;
#X connect 0 0 11 0;
#X connect 1 0 2 0;
#X connect 2 0 4 0;
#X connect 2 1 13 0;
#X connect 3 0 4 1;
#X connect 3 0 9 1;
#X connect 4 0 0 0;
#X connect 6 0 5 0;
#X connect 7 0 6 0;
#X connect 8 0 7 0;
#X connect 8 1 10 0;
#X connect 8 2 9 0;
#X connect 9 0 7 1;
#X connect 11 0 12 0;
#X connect 12 0 8 0;
#X connect 12 0 11 1;
#X connect 13 0 11 1;
