#N canvas 974 278 450 300 10;
#X obj 155 133 countTo;
#X obj 192 108 \$1;
#X obj 127 35 inlet;
#X obj 204 59 inlet;
#X obj 146 215 list;
#X obj 197 214 list;
#X obj 142 161 t b b b f b b;
#X obj 126 244 list;
#X obj 114 273 outlet;
#X obj 145 82 t b b b;
#X floatatom 254 76 5 0 0 0 - - -;
#X obj 98 66 bng 15 250 50 0 empty empty empty 17 7 0 10 -262144 -1
-1;
#X obj 74 179 t b b b;
#X connect 0 0 6 0;
#X connect 0 1 12 0;
#X connect 1 0 0 1;
#X connect 2 0 9 0;
#X connect 3 0 1 1;
#X connect 4 0 5 1;
#X connect 4 0 7 1;
#X connect 5 0 4 0;
#X connect 6 2 5 0;
#X connect 6 3 4 1;
#X connect 7 0 8 0;
#X connect 9 0 0 0;
#X connect 9 1 1 0;
#X connect 9 2 5 0;
#X connect 10 0 1 1;
#X connect 11 0 9 0;
#X connect 12 1 7 1;
#X connect 12 1 4 1;
#X connect 12 1 5 1;
#X connect 12 2 7 0;
