#N canvas 451 144 829 551 10;
#X msg 33 195 1;
#X obj 268 45 bng 20 250 50 0 empty empty empty 17 7 0 10 -262144 -1
-1;
#X obj 360 191 soundfiler;
#X obj 359 117 \$0;
#X obj 358 24 loadbang;
#X msg 359 66 bang;
#N canvas 0 23 1190 370 (subpatch) 0;
#X array \$0-table 32768 float 2;
#X coords 0 1 32768 -1 200 140 1;
#X restore 559 272 graph;
#X obj 337 277 tabplay~ \$0-table;
#X obj 436 317 bng 15 250 50 0 empty empty empty 17 7 0 10 -262144
-1 -1;
#X obj 401 113 symbol \$1;
#X obj 360 141 list;
#X obj 359 88 t b b;
#X obj 20 129 symbol \$1;
#X obj 260 12 inlet;
#X obj 155 393 switch~;
#X obj 156 367 tgl 15 0 empty empty empty 17 7 0 10 -262144 -1 -1 0
1;
#X msg 161 310 1;
#X msg 238 308 0;
#X obj 315 403 dac~ 1 2;
#X obj 317 337 *~ 0.01;
#X obj 27 252 s \$2-readsf-\$3-inlet;
#X msg 20 158 open \$1 32768;
#X msg 359 169 read -resize -maxsize 32768 \$2 \$1-table;
#X obj 420 39 r \$2-load-samples;
#X text 7 0 Creation arguments:;
#X text 7 10 - filename;
#X text 7 20 - id of the main patch;
#X text 7 30 - readsf-wrapper ID to use for playback;
#X text 10 40 (could do with dynamic voice;
#X text 14 50 allocation instead);
#X text 125 81 Upon bang:;
#X text 126 91 - [switch~] on the patch;
#X text 125 111 - tell readsf to startreading;
#X text 125 101 - start playing from the array;
#X text 64 194 When [tabplay~] is done;
#X text 64 204 send [1( to readsf~ to start playback;
#X text 125 121 with an offset;
#X connect 0 0 20 0;
#X connect 1 0 7 0;
#X connect 1 0 12 0;
#X connect 1 0 16 0;
#X connect 3 0 10 0;
#X connect 4 0 5 0;
#X connect 5 0 11 0;
#X connect 7 0 19 0;
#X connect 7 1 8 0;
#X connect 8 0 0 0;
#X connect 8 0 17 0;
#X connect 9 0 10 1;
#X connect 10 0 22 0;
#X connect 11 0 3 0;
#X connect 11 1 9 0;
#X connect 12 0 21 0;
#X connect 13 0 1 0;
#X connect 15 0 14 0;
#X connect 16 0 15 0;
#X connect 17 0 15 0;
#X connect 19 0 18 0;
#X connect 19 0 18 1;
#X connect 21 0 20 0;
#X connect 22 0 2 0;
#X connect 23 0 5 0;
