#N canvas 193 24 988 699 10;
#X obj 76 61 inlet;
#X msg 80 107 bang, f 5;
#X obj 88 142 t b b b b b b b b b;
#X msg 200 320 connect 0 0 1 0 \, connect 1 0 2 0;
#X obj 243 269 list;
#X obj 243 292 list trim;
#X floatatom 570 68 5 0 0 0 - - -;
#X msg 224 243 obj 0 80 select;
#X obj 320 221 countToList;
#X floatatom 498 353 5 0 0 0 - - -;
#X obj 155 286 bng 15 250 50 0 empty empty empty 17 7 0 10 -262144
-1 -1;
#X obj 185 349 countTo;
#X obj 571 138 s \$0-number-of-files;
#X obj 386 114 r \$0-number-of-files;
#X floatatom 787 65 5 0 0 0 - - -;
#X obj 788 135 s \$0-number-of-voices;
#X obj 321 364 r \$0-number-of-voices;
#X obj 210 403 expr $f1*21+130 \; $f1*10 \; $f1+3 \; $f1 \; ($f1)%$f2
;
#X text 743 87 Has to be <= number of readsf~;
#X obj 570 46 inlet;
#X obj 787 42 inlet;
#X text 137 18 Automatically generates and connects;
#X text 137 28 instances of [dynamic-load-file] with;
#X text 137 38 appropriate parameters.;
#X text 59 79 start generation;
#X text 136 48 These are generated in the [\$0-fileplayers] subpatch
;
#X msg 201 185 clear \, obj 0 40 receive \$1-trigger-playback \, obj
0 60 i;
#X obj 199 164 \$1;
#X obj 224 501 pack 1 2 3 4 5 \$1;
#X msg 202 556 obj \$2 \$1 dynamic-load-file sine\$4.wav \$6 \$5 \,
connect 2 \$4 \$3 0;
#X obj 29 256 s \$1-load-samples;
#X obj 111 607 s pd-\$1-dynamic-loaders;
#X connect 0 0 1 0;
#X connect 1 0 2 0;
#X connect 2 2 30 0;
#X connect 2 3 11 0;
#X connect 2 4 3 0;
#X connect 2 6 7 0;
#X connect 2 7 8 0;
#X connect 2 8 27 0;
#X connect 3 0 31 0;
#X connect 4 0 5 0;
#X connect 5 0 31 0;
#X connect 6 0 12 0;
#X connect 7 0 4 0;
#X connect 8 0 4 1;
#X connect 9 0 17 0;
#X connect 10 0 11 0;
#X connect 11 0 17 0;
#X connect 13 0 8 1;
#X connect 13 0 11 1;
#X connect 14 0 15 0;
#X connect 16 0 17 1;
#X connect 17 0 28 0;
#X connect 17 1 28 1;
#X connect 17 2 28 2;
#X connect 17 3 28 3;
#X connect 17 4 28 4;
#X connect 19 0 6 0;
#X connect 20 0 14 0;
#X connect 26 0 31 0;
#X connect 27 0 26 0;
#X connect 28 0 29 0;
#X connect 29 0 31 0;
